<svg width="329" height="271" viewBox="0 0 329 271" fill="none" xmlns="http://www.w3.org/2000/svg">
<path d="M231.607 6.12352C241.505 9.00643 285.742 23.1501 304.606 61.26C331.089 114.731 286.257 172.132 273.956 187.877C245.763 223.977 170.365 291.271 95.3308 264.131C35.2243 242.392 10.5561 168.814 22.1183 116.701C41.1925 30.8189 153.075 -16.7257 231.607 6.12352Z" fill="#EFF5F9"/>
<path d="M294.858 146.861H274.511C274.142 146.861 273.843 147.161 273.843 147.53V155.868C273.843 156.237 274.142 156.537 274.511 156.537H294.858C295.228 156.537 295.527 156.237 295.527 155.868V147.53C295.527 147.161 295.228 146.861 294.858 146.861Z" stroke="#C9EFFB" stroke-width="2" stroke-miterlimit="10"/>
<path d="M294.858 166.175H274.511C274.142 166.175 273.843 166.475 273.843 166.844V175.182C273.843 175.551 274.142 175.851 274.511 175.851H294.858C295.228 175.851 295.527 175.551 295.527 175.182V166.844C295.527 166.475 295.228 166.175 294.858 166.175Z" stroke="#C9EFFB" stroke-width="2" stroke-miterlimit="10"/>
<path d="M305.699 156.537H285.351C284.982 156.537 284.683 156.836 284.683 157.206V165.543C284.683 165.913 284.982 166.212 285.351 166.212H305.699C306.068 166.212 306.367 165.913 306.367 165.543V157.206C306.367 156.836 306.068 156.537 305.699 156.537Z" stroke="#C9EFFB" stroke-width="2" stroke-miterlimit="10"/>
<path d="M284.015 156.537H263.667C263.298 156.537 262.999 156.836 262.999 157.206V165.543C262.999 165.913 263.298 166.212 263.667 166.212H284.015C284.384 166.212 284.683 165.913 284.683 165.543V157.206C284.683 156.836 284.384 156.537 284.015 156.537Z" stroke="#C9EFFB" stroke-width="2" stroke-miterlimit="10"/>
<path d="M57.0018 194.683H36.6544C36.2853 194.683 35.9861 194.983 35.9861 195.352V203.69C35.9861 204.059 36.2853 204.359 36.6544 204.359H57.0018C57.3709 204.359 57.6702 204.059 57.6702 203.69V195.352C57.6702 194.983 57.3709 194.683 57.0018 194.683Z" stroke="#C9EFFB" stroke-width="2" stroke-miterlimit="10"/>
<path d="M67.8456 213.997H47.4982C47.1291 213.997 46.8298 214.297 46.8298 214.666V223.004C46.8298 223.373 47.1291 223.673 47.4982 223.673H67.8456C68.2147 223.673 68.5139 223.373 68.5139 223.004V214.666C68.5139 214.297 68.2147 213.997 67.8456 213.997Z" stroke="#C9EFFB" stroke-width="2" stroke-miterlimit="10"/>
<path d="M72.3502 204.359H52.0028C51.6337 204.359 51.3345 204.658 51.3345 205.028V213.365C51.3345 213.735 51.6337 214.034 52.0028 214.034H72.3502C72.7193 214.034 73.0185 213.735 73.0185 213.365V205.028C73.0185 204.658 72.7193 204.359 72.3502 204.359Z" stroke="#C9EFFB" stroke-width="2" stroke-miterlimit="10"/>
<path d="M50.6661 204.359H30.3187C29.9496 204.359 29.6504 204.658 29.6504 205.028V213.365C29.6504 213.735 29.9496 214.034 30.3187 214.034H50.6661C51.0352 214.034 51.3345 213.735 51.3345 213.365V205.028C51.3345 204.658 51.0352 204.359 50.6661 204.359Z" stroke="#C9EFFB" stroke-width="2" stroke-miterlimit="10"/>
<path d="M183.116 65.775H162.769C162.4 65.775 162.101 66.0745 162.101 66.4439V74.7816C162.101 75.151 162.4 75.4505 162.769 75.4505H183.116C183.485 75.4505 183.785 75.151 183.785 74.7816V66.4439C183.785 66.0745 183.485 65.775 183.116 65.775Z" stroke="#C9EFFB" stroke-width="2" stroke-miterlimit="10"/>
<path d="M190.441 85.126H170.094C169.725 85.126 169.426 85.4254 169.426 85.7949V94.1326C169.426 94.502 169.725 94.8015 170.094 94.8015H190.441C190.81 94.8015 191.11 94.502 191.11 94.1326V85.7949C191.11 85.4254 190.81 85.126 190.441 85.126Z" stroke="#C9EFFB" stroke-width="2" stroke-miterlimit="10"/>
<path d="M198.465 75.4506H178.117C177.748 75.4506 177.449 75.75 177.449 76.1195V84.4571C177.449 84.8266 177.748 85.126 178.117 85.126H198.465C198.834 85.126 199.133 84.8266 199.133 84.4571V76.1195C199.133 75.75 198.834 75.4506 198.465 75.4506Z" stroke="#C9EFFB" stroke-width="2" stroke-miterlimit="10"/>
<path d="M176.781 75.4506H156.433C156.064 75.4506 155.765 75.75 155.765 76.1195V84.4571C155.765 84.8266 156.064 85.126 156.433 85.126H176.781C177.15 85.126 177.449 84.8266 177.449 84.4571V76.1195C177.449 75.75 177.15 75.4506 176.781 75.4506Z" stroke="#C9EFFB" stroke-width="2" stroke-miterlimit="10"/>
<path d="M106.826 20.0063H105.155V132.276H106.826V20.0063Z" fill="#89DBF6"/>
<path d="M57.7104 20.0063H56.0396V132.276H57.7104V20.0063Z" fill="#89DBF6"/>
<path d="M154.194 99.9485H8.6748V101.621H154.194V99.9485Z" fill="#89DBF6"/>
<path d="M154.194 50.7919H8.6748V52.4641H154.194V50.7919Z" fill="#89DBF6"/>
<path d="M158.254 15.5281H4.61123C4.10367 15.5281 3.6168 15.7294 3.25728 16.088C2.89775 16.4466 2.69488 16.9331 2.69312 17.4411V134.965C2.69312 135.474 2.8952 135.962 3.25492 136.322C3.61463 136.682 4.10251 136.885 4.61123 136.885H158.254C158.763 136.885 159.251 136.682 159.611 136.322C159.97 135.962 160.172 135.474 160.172 134.965V17.4411C160.171 16.9331 159.968 16.4466 159.608 16.088C159.249 15.7294 158.762 15.5281 158.254 15.5281ZM154.194 130.5C154.194 130.971 154.007 131.423 153.675 131.756C153.342 132.089 152.89 132.276 152.42 132.276H10.4491C10.2163 132.276 9.98568 132.23 9.77059 132.141C9.55549 132.051 9.3601 131.921 9.1956 131.756C9.03109 131.591 8.90071 131.395 8.8119 131.179C8.72309 130.964 8.6776 130.733 8.67804 130.5V21.9093C8.67804 21.6765 8.72385 21.446 8.81286 21.2309C8.90186 21.0159 9.03232 20.8205 9.19678 20.6559C9.36124 20.4913 9.55648 20.3607 9.77136 20.2716C9.98623 20.1826 10.2165 20.1367 10.4491 20.1367H152.42C152.653 20.1363 152.883 20.1818 153.099 20.2707C153.314 20.3596 153.51 20.4901 153.674 20.6547C153.839 20.8193 153.97 21.0149 154.059 21.2302C154.148 21.4455 154.194 21.6762 154.194 21.9093V130.5Z" fill="#87DBF6"/>
<path d="M99.9123 196.509H69.9309C69.2219 196.509 68.5419 196.227 68.0406 195.726C67.5392 195.224 67.2576 194.543 67.2576 193.834V188.884C67.2576 182.299 89.3126 186.877 89.3126 186.877C89.3126 186.877 102.586 186.667 102.586 188.884V193.834C102.586 194.543 102.304 195.224 101.803 195.726C101.301 196.227 100.621 196.509 99.9123 196.509Z" fill="#C9EFFB"/>
<path d="M99.9123 192.355H69.9309C69.2219 192.355 68.5419 192.074 68.0406 191.572C67.5392 191.07 67.2576 190.39 67.2576 189.68V193.844C67.2576 194.553 67.5392 195.234 68.0406 195.736C68.5419 196.237 69.2219 196.519 69.9309 196.519H99.899C100.608 196.519 101.288 196.237 101.789 195.736C102.291 195.234 102.572 194.553 102.572 193.844V189.68C102.572 190.387 102.292 191.066 101.794 191.567C101.296 192.069 100.619 192.352 99.9123 192.355Z" fill="#80CBE8"/>
<path d="M291.44 196.509H46.6361C44.7905 196.509 43.2944 198.007 43.2944 199.854V205.546C43.2944 207.393 44.7905 208.89 46.6361 208.89H291.44C293.285 208.89 294.782 207.393 294.782 205.546V199.854C294.782 198.007 293.285 196.509 291.44 196.509Z" fill="#C9EFFB"/>
<path d="M3.19434 194.743L13.47 133.644H25.2259L35.5016 194.743H3.19434Z" fill="#FEAA40"/>
<path d="M35.6987 254.92C35.3111 252.311 34.8867 249.709 34.469 247.104C34.0513 244.499 33.647 241.897 33.1958 239.298C32.3136 234.101 31.4548 228.9 30.5225 223.713C29.5902 218.526 28.6879 213.345 27.7055 208.155C27.637 207.788 27.4431 207.457 27.157 207.218C26.871 206.98 26.5107 206.848 26.1382 206.847L20.7515 206.817L21.0155 194.743H17.7005L17.9612 206.81C16.1667 206.81 14.3689 206.83 12.5744 206.837C12.2 206.838 11.8377 206.97 11.5503 207.21C11.2628 207.45 11.0683 207.783 11.0005 208.151L9.55354 215.924L8.16674 223.71L6.77327 231.485L5.46334 239.285C5.01555 241.88 4.59785 244.485 4.18682 247.091C3.7758 249.696 3.34472 252.295 2.96043 254.903C2.16845 260.117 1.39987 265.338 0.724854 270.575C2.02476 265.458 3.22776 260.321 4.40069 255.191C5.00553 252.622 5.5569 250.044 6.13501 247.472C6.71312 244.9 7.27786 242.325 7.80584 239.746L9.45663 232.011L11.0439 224.265L12.6178 216.516L13.9044 210.081H18.0347L19.348 270.569L20.6646 210.081H24.8183C25.7339 214.82 26.6963 219.546 27.662 224.275C28.6946 229.442 29.8107 234.596 30.9034 239.753C31.4381 242.335 32.0262 244.903 32.5743 247.479C33.1223 250.054 33.7071 252.629 34.3053 255.198C35.4748 260.341 36.6812 265.478 37.9811 270.582C37.2727 265.351 36.5141 260.131 35.6987 254.92Z" fill="#E3EAF3"/>
<path d="M17.8208 133.644H13.4566L3.19434 194.743H35.3679C31.535 188.463 21.6671 186.717 16.6145 177.54C13.5134 171.918 14.4324 163.108 16.2803 145.486C16.7983 140.567 17.3329 136.697 17.8208 133.644Z" fill="#EA8826"/>
<path d="M326.287 218.201H269.963V270.585H326.287V218.201Z" fill="#C9EFFB"/>
<path d="M328.265 215.242H267.988V218.201H328.265V215.242Z" fill="#C9EFFB"/>
<path d="M326.287 218.201H269.963V220.961H326.287V218.201Z" fill="#80CBE8"/>
<path d="M283.216 201.282H295.273V209.208C295.273 210.805 294.639 212.336 293.511 213.465C292.383 214.594 290.853 215.228 289.258 215.228C287.662 215.228 286.132 214.594 285.004 213.465C283.876 212.336 283.243 210.805 283.243 209.208V201.282H283.216Z" fill="#80CBE8"/>
<path d="M313.003 201.282H325.06V209.208C325.06 210.805 324.426 212.336 323.298 213.465C322.17 214.594 320.64 215.228 319.045 215.228C317.45 215.228 315.92 214.594 314.792 213.465C313.664 212.336 313.03 210.805 313.03 209.208V201.282H313.003Z" fill="#80CBE8"/>
<path d="M283.216 206.268H295.269" stroke="#FDFCF8" stroke-width="3" stroke-miterlimit="10"/>
<path d="M313.003 206.268H325.06" stroke="#FDFCF8" stroke-width="3" stroke-miterlimit="10"/>
<path d="M269.963 232.693H326.29" stroke="#FDFCF8" stroke-width="3" stroke-miterlimit="10"/>
<path d="M269.963 245.656H326.29" stroke="#FDFCF8" stroke-width="3" stroke-miterlimit="10"/>
<path d="M269.963 258.619H326.29" stroke="#FDFCF8" stroke-width="3" stroke-miterlimit="10"/>
<path d="M298.126 227.974C299.319 227.974 300.285 227.007 300.285 225.813C300.285 224.62 299.319 223.653 298.126 223.653C296.934 223.653 295.968 224.62 295.968 225.813C295.968 227.007 296.934 227.974 298.126 227.974Z" fill="#80CBE8"/>
<path d="M298.126 241.335C299.319 241.335 300.285 240.368 300.285 239.174C300.285 237.981 299.319 237.014 298.126 237.014C296.934 237.014 295.968 237.981 295.968 239.174C295.968 240.368 296.934 241.335 298.126 241.335Z" fill="#80CBE8"/>
<path d="M298.126 254.696C299.319 254.696 300.285 253.729 300.285 252.536C300.285 251.342 299.319 250.375 298.126 250.375C296.934 250.375 295.968 251.342 295.968 252.536C295.968 253.729 296.934 254.696 298.126 254.696Z" fill="#80CBE8"/>
<path d="M298.126 268.057C299.319 268.057 300.285 267.09 300.285 265.896C300.285 264.703 299.319 263.736 298.126 263.736C296.934 263.736 295.968 264.703 295.968 265.896C295.968 267.09 296.934 268.057 298.126 268.057Z" fill="#80CBE8"/>
<path d="M282.998 90.9253H256.763C256.554 90.9271 256.346 90.8871 256.152 90.8078C255.958 90.7284 255.782 90.6112 255.634 90.463C255.486 90.3148 255.369 90.1386 255.29 89.9447C255.211 89.7507 255.171 89.5429 255.172 89.3334V63.0795C255.171 62.8698 255.211 62.6618 255.29 62.4676C255.369 62.2735 255.486 62.0971 255.634 61.9486C255.782 61.8002 255.958 61.6827 256.152 61.6029C256.346 61.5232 256.553 61.4828 256.763 61.4842H282.998C283.208 61.4833 283.415 61.524 283.609 61.6039C283.803 61.6838 283.978 61.8013 284.126 61.9496C284.274 62.098 284.391 62.2742 284.471 62.4682C284.55 62.6621 284.59 62.8699 284.589 63.0795V89.3467C284.576 89.7637 284.404 90.1598 284.108 90.4535C283.812 90.7472 283.415 90.9161 282.998 90.9253Z" fill="#A04833"/>
<path d="M283.664 91.6878H256.061C255.618 91.6878 255.193 91.5116 254.88 91.198C254.567 90.8844 254.391 90.4591 254.391 90.0156V62.3905C254.391 61.947 254.567 61.5217 254.88 61.208C255.193 60.8944 255.618 60.7183 256.061 60.7183H283.664C284.107 60.7183 284.532 60.8944 284.845 61.208C285.158 61.5217 285.334 61.947 285.334 62.3905V90.0156C285.334 90.4591 285.158 90.8844 284.845 91.198C284.532 91.5116 284.107 91.6878 283.664 91.6878ZM256.061 62.3771V90.0156H283.677V62.3938L256.061 62.3771Z" fill="#FFC065"/>
<path d="M263.413 82.6778C263.752 81.9546 264.131 81.2511 264.549 80.5709C265.117 80.0692 265.619 79.5006 266.187 78.9655L269.428 75.7214L269.228 76.1896V72.1763C269.228 71.5074 269.194 70.8385 269.261 70.1696C269.462 69.5007 269.662 68.8319 269.896 68.163C270.153 68.8166 270.365 69.4871 270.531 70.1696C270.564 70.8385 270.531 71.5074 270.564 72.1763V76.4906L270.364 76.6913L267.122 79.9354C266.588 80.4705 266.02 81.0056 265.518 81.5742C264.85 81.9421 264.148 82.3434 263.413 82.6778Z" fill="#FFC065"/>
<path d="M211.353 106.821C211.353 106.821 214.912 106.999 215.116 111.086C215.32 115.172 218.384 114.032 218.384 114.032C218.384 114.032 216.329 117.162 212.215 113.912C208.102 110.661 207.557 110.233 207.557 110.233C207.557 110.233 207.557 106.985 211.086 106.801" fill="#000001"/>
<path d="M212.971 115.393C212.971 115.393 212.135 125.524 208.129 129.918C204.122 134.313 208.055 115.055 208.055 115.055L212.971 115.393Z" fill="#000001"/>
<path d="M200.109 134.831C200.316 134.089 199.44 132.286 198.902 131.246C202.531 131.801 206.849 129.239 209.098 124.704C209.233 124.776 209.379 124.829 209.529 124.861C209.529 124.861 209.883 134.296 211.925 134.413C214.314 136.463 222.12 143.406 220.533 146.63C219.196 149.329 211.992 147.938 201.245 145.861C200.2 145.697 199.226 145.232 198.441 144.523C196.186 142.373 196.804 138.503 197.104 137.63C197.532 136.503 199.805 135.908 200.109 134.831Z" fill="#EA9D7D"/>
<path d="M207.942 135.915C209.365 132.824 206.374 132.169 206.374 132.169L206.395 132.125C204.416 133.463 202.207 134.042 200.222 133.657L199.948 133.594C199.664 132.78 199.314 131.99 198.903 131.232C202.528 131.788 206.638 128.985 208.887 124.447C208.942 124.569 209.031 124.673 209.145 124.744C209.259 124.815 209.392 124.85 209.526 124.845C209.526 124.845 209.593 126.6 209.833 128.604C210.147 131.256 210.762 134.353 211.925 134.42C215.163 137.169 222.983 144.172 221.415 147.279C219.848 150.386 209.115 149.286 201.245 145.868C200.045 145.346 199.066 144.834 198.354 144.44C203.263 144.981 206.665 138.687 207.942 135.915Z" fill="#D18165"/>
<path d="M204.516 106.915C208.66 107.721 211.2 113.002 210.615 119.132H210.648C211.781 119.353 212.45 120.805 212.139 122.4C211.828 123.995 210.662 125.075 209.529 124.868C209.4 124.861 209.275 124.828 209.16 124.771C209.045 124.713 208.943 124.632 208.861 124.534C206.562 129.176 202.338 131.928 198.658 131.222C194.097 130.333 192.483 124.697 193.826 117.798C195.17 110.898 199.955 106.022 204.516 106.915Z" fill="#EA9D7D"/>
<path d="M200.005 126.343C198.736 126.429 197.474 126.603 196.229 126.861C196.229 126.861 196.356 125.065 197.85 124.855C199.343 124.644 200.005 126.343 200.005 126.343Z" fill="#BE3E5F"/>
<path d="M196.801 117.35C196.927 118.041 196.942 118.748 196.844 119.443C196.799 119.812 196.695 120.171 196.537 120.507C196.443 120.701 196.353 120.818 196.266 120.968C196.179 121.119 196.095 121.249 196.022 121.39C195.873 121.628 195.781 121.899 195.755 122.179C195.749 122.279 195.783 122.377 195.848 122.453C195.945 122.545 196.058 122.618 196.182 122.667C196.817 122.857 197.472 122.969 198.134 123.002C197.452 123.234 196.722 123.285 196.015 123.149C195.806 123.101 195.613 122.999 195.454 122.855C195.272 122.689 195.16 122.461 195.14 122.216C195.13 121.809 195.238 121.409 195.45 121.062C195.537 120.901 195.631 120.751 195.728 120.604C195.825 120.457 195.935 120.306 195.999 120.192C196.152 119.918 196.271 119.626 196.353 119.323C196.52 118.697 196.653 118.029 196.801 117.35Z" fill="#D18165"/>
<path d="M202.859 116.437C202.187 116.418 201.517 116.354 200.854 116.243C200.532 116.187 200.216 116.106 199.908 115.999C199.574 115.902 199.296 115.751 198.959 115.614C199.156 115.92 199.423 116.176 199.738 116.36C200.052 116.55 200.398 116.682 200.76 116.748C201.119 116.812 201.485 116.82 201.846 116.771C202.203 116.728 202.547 116.614 202.859 116.437Z" fill="#000001"/>
<path d="M194.445 115.433C194.391 115.597 194.338 115.768 194.288 115.925H194.334C194.693 115.99 195.059 115.997 195.42 115.948C195.779 115.908 196.126 115.794 196.44 115.614C195.771 115.6 195.105 115.54 194.445 115.433Z" fill="#000001"/>
<path d="M194.689 119.881C194.822 119.907 194.96 119.879 195.073 119.803C195.185 119.727 195.263 119.61 195.29 119.477L195.578 118.005C195.594 117.938 195.596 117.869 195.584 117.801C195.573 117.733 195.548 117.668 195.511 117.61C195.473 117.552 195.425 117.502 195.368 117.463C195.311 117.424 195.247 117.397 195.179 117.384C195.111 117.371 195.042 117.371 194.974 117.385C194.907 117.4 194.843 117.428 194.787 117.467C194.73 117.507 194.683 117.557 194.646 117.616C194.61 117.674 194.586 117.74 194.575 117.808L194.288 119.279C194.262 119.412 194.29 119.55 194.365 119.663C194.44 119.775 194.556 119.854 194.689 119.881Z" fill="#000001"/>
<path d="M199.842 120.196C199.974 120.221 200.112 120.193 200.224 120.117C200.336 120.041 200.414 119.924 200.44 119.791L200.727 118.32C200.743 118.252 200.745 118.183 200.734 118.115C200.722 118.047 200.697 117.982 200.66 117.924C200.623 117.866 200.574 117.816 200.517 117.777C200.46 117.738 200.396 117.712 200.329 117.698C200.261 117.685 200.191 117.686 200.124 117.7C200.057 117.714 199.993 117.742 199.936 117.781C199.88 117.821 199.832 117.872 199.796 117.93C199.759 117.989 199.735 118.054 199.725 118.122L199.441 119.594C199.414 119.727 199.441 119.865 199.517 119.978C199.592 120.091 199.709 120.169 199.842 120.196Z" fill="#000001"/>
<path d="M210.689 120.544C210.966 120.735 211.176 121.009 211.29 121.326C211.411 121.654 211.438 122.01 211.368 122.353C211.298 122.696 211.133 123.012 210.893 123.266C210.778 123.392 210.649 123.504 210.508 123.6C210.366 123.683 210.215 123.748 210.057 123.794C210.121 123.634 210.204 123.507 210.271 123.373C210.338 123.239 210.411 123.115 210.458 122.982C210.572 122.743 210.658 122.492 210.712 122.233C210.809 121.673 210.801 121.1 210.689 120.544Z" fill="#D18165"/>
<path d="M212.674 113.005C211.12 109.952 209.419 110.186 209.419 110.186C208.831 108.865 208.082 107.474 206.361 106.55C204.64 105.627 204.356 106.577 202.859 106.31C201.362 106.042 200.737 105.146 199.227 105.718C198.468 106.005 197.753 107.233 195.481 109.29C192.807 111.708 194.719 114.621 194.719 114.621C195.446 113.096 196.349 111.661 197.409 110.346C197.359 111.015 197.893 111.51 198.485 111.835C199.222 112.229 200.077 112.341 200.891 112.149C204.844 111.279 207.106 112.109 207.106 112.109C205.526 115.554 207.016 114.303 208.309 117.326C209.603 120.35 206.866 125.965 205.723 126.834C204.58 127.704 202.308 124.925 201.796 124.343C201.285 123.761 200.53 123.005 197.549 122.935C194.568 122.865 193.462 124.129 193.462 124.129C193.128 127.942 194.936 130.102 196.206 131.129C196.851 131.647 197.634 131.966 198.458 132.045C202.802 132.503 205.589 130.413 207.076 128.299C208.69 126.008 210.649 119.112 210.649 119.112C213.603 121.259 213.362 114.36 212.674 113.005ZM200.055 128.296C198.492 128.229 198.588 127.139 197.95 127.069C197.312 126.998 197.121 128.289 196.243 128.192C195.528 128.112 195.116 127.818 195.006 127.015C194.954 126.615 194.993 126.208 195.12 125.824C195.37 125.029 195.588 123.968 197.205 123.684C198.906 123.386 200.072 124.018 200.48 124.41C201.522 125.413 201.619 128.36 200.055 128.296Z" fill="#000001"/>
<path d="M178.227 228.663L176.864 226.402L168.74 230.482C169.093 231.316 169.272 232.213 169.265 233.118C169.222 234.496 178.227 228.663 178.227 228.663Z" fill="#EA9D7D"/>
<path d="M225.158 178.914C225.158 178.914 232.296 193.392 218.986 200.339C205.676 207.285 197.382 209.8 196.998 212.713C196.613 215.626 199.12 219.469 197.963 231.051C196.807 242.633 194.876 256.338 194.876 256.338C194.876 256.338 184.654 257.883 183.11 256.338C181.566 254.793 183.497 235.405 181.773 217.977C181.773 217.977 178.495 209.616 182.836 204.412L186.512 200.937L164.787 200.717C164.787 200.717 170.766 207.088 172.791 212.78C174.816 218.472 177.516 226.492 177.516 226.492L168.356 230.93C168.356 230.93 155.431 210.951 150.996 206.994C146.562 203.038 141.543 191.944 149.259 188.934C156.975 185.924 174.619 182.068 194.485 181.489L195.21 178.897L225.158 178.914Z" fill="#25BEEF"/>
<path d="M196.483 191.018L186.485 200.927L164.787 200.717C164.787 200.717 170.766 207.088 172.791 212.78C174.816 218.472 177.516 226.492 177.516 226.492L168.356 230.93C169.663 227.746 171.006 223.041 170.057 217.773C167.995 206.292 157.716 201.957 158.695 197.442C159.487 193.941 167.08 190.593 196.483 191.018Z" fill="#1A87C4"/>
<path d="M171.04 267.321C174.124 264.555 181.456 261.08 183.126 256.318C184.41 257.602 191.678 256.753 194.1 256.428C194.1 256.428 195.277 260.177 195.344 262.88C195.41 265.582 195.344 266.355 195.344 266.355L190.842 266.937V265.779C190.842 265.779 188.206 265.91 186.792 267.325C185.379 268.739 181.325 270.605 176.954 270.411C172.583 270.218 167.952 270.087 171.04 267.321Z" fill="#D18165"/>
<path d="M176.958 270.408C181.329 270.602 185.379 268.736 186.792 267.321C188.206 265.906 190.842 265.776 190.842 265.776V266.937L195.343 266.358C195.343 266.358 195.41 265.585 195.343 262.883C195.268 261.454 195.053 260.036 194.702 258.649C194.394 257.371 194.1 256.435 194.1 256.435C191.681 256.769 184.41 257.602 183.13 256.321C182.775 257.263 182.265 258.138 181.619 258.91C181.409 259.174 181.185 259.432 180.951 259.682L180.349 260.284C180.089 260.535 179.818 260.786 179.534 261.034C176.684 263.519 173.004 265.565 171.036 267.324C167.955 270.087 172.583 270.217 176.958 270.408Z" fill="#FC7E85"/>
<path d="M176.954 270.408C173.446 270.254 169.773 270.141 170.057 268.669C181.031 271.304 185.375 266.997 186.174 265.713C186.973 264.428 188.914 264.298 188.914 264.298C192.466 264.258 194.368 263.127 195.307 262.258C195.307 262.468 195.337 262.679 195.344 262.88C195.407 265.582 195.344 266.355 195.344 266.355L190.842 266.937V265.779C190.842 265.779 188.206 265.91 186.792 267.325C185.379 268.739 181.325 270.615 176.954 270.408Z" fill="#7C2F13"/>
<path d="M180.954 259.679C181.162 259.82 181.382 259.953 181.603 260.077C181.898 260.252 182.208 260.402 182.528 260.525C182.877 260.676 183.245 260.776 183.621 260.823C183.487 260.45 183.278 260.108 183.006 259.82C182.751 259.546 182.456 259.312 182.131 259.127C181.966 259.037 181.795 258.957 181.619 258.89C181.409 259.171 181.185 259.428 180.954 259.679Z" fill="#7C2F13"/>
<path d="M179.537 261.03C179.688 261.121 179.838 261.214 179.995 261.298C180.293 261.469 180.602 261.62 180.921 261.749C181.269 261.899 181.637 261.998 182.014 262.044C181.88 261.67 181.671 261.328 181.399 261.04C181.144 260.766 180.848 260.533 180.523 260.348C180.47 260.318 180.413 260.291 180.353 260.264C180.092 260.532 179.821 260.783 179.537 261.03Z" fill="#7C2F13"/>
<path d="M160.791 246.633C162.732 242.954 168.406 237.171 168.333 232.124C169.977 232.887 176.506 229.573 178.669 228.445C178.669 228.445 181.068 231.556 182.06 234.071C183.053 236.586 183.263 237.332 183.263 237.332L179.253 239.432L178.852 238.345C178.852 238.345 176.423 239.378 175.584 241.194C174.745 243.011 171.574 246.164 167.42 247.499C163.267 248.833 158.852 250.298 160.791 246.633Z" fill="#D18165"/>
<path d="M167.411 247.482C171.581 246.144 174.735 242.997 175.574 241.181C176.413 239.365 178.842 238.328 178.842 238.328L179.24 239.415L183.25 237.315C183.25 237.315 183.043 236.569 182.05 234.054C181.483 232.74 180.79 231.483 179.982 230.302C179.257 229.211 178.645 228.432 178.645 228.432C176.483 229.572 169.957 232.883 168.309 232.111C168.306 233.118 168.13 234.117 167.788 235.064C167.681 235.398 167.561 235.703 167.431 236.017C167.314 236.278 167.197 236.532 167.076 236.79C166.916 237.124 166.742 237.459 166.572 237.793C164.754 241.107 162.007 244.305 160.771 246.636C158.853 250.295 163.24 248.816 167.411 247.482Z" fill="#FC7E85"/>
<path d="M167.407 247.485C164.065 248.552 160.577 249.716 160.336 248.238C171.544 246.9 174.134 241.368 174.438 239.877C174.742 238.385 176.517 237.599 176.517 237.599C179.838 236.332 181.232 234.613 181.813 233.472C181.903 233.666 181.987 233.857 182.06 234.047C183.063 236.559 183.263 237.308 183.263 237.308L179.253 239.409L178.852 238.322C178.852 238.322 176.423 239.355 175.584 241.171C174.745 242.987 171.578 246.151 167.407 247.485Z" fill="#7C2F13"/>
<path d="M167.454 236.031C167.698 236.091 167.952 236.141 168.199 236.181C168.538 236.242 168.881 236.276 169.225 236.281C169.603 236.301 169.982 236.267 170.351 236.181C170.097 235.883 169.784 235.64 169.432 235.469C169.1 235.304 168.743 235.191 168.376 235.134C168.189 235.106 168.001 235.092 167.812 235.091C167.705 235.395 167.584 235.716 167.454 236.031Z" fill="#7C2F13"/>
<path d="M166.595 237.79C166.766 237.823 166.929 237.857 167.113 237.883C167.453 237.939 167.795 237.973 168.139 237.984C168.517 238.003 168.896 237.969 169.265 237.883C169.012 237.584 168.699 237.342 168.346 237.171C168.013 237.006 167.657 236.893 167.29 236.837C167.227 236.827 167.164 236.82 167.1 236.817C166.939 237.131 166.776 237.459 166.595 237.79Z" fill="#7C2F13"/>
<path d="M194.876 256.321C194.615 256.361 194.351 256.398 194.09 256.432L192.877 256.582H192.854L191.658 256.713L191.273 256.753C190.722 256.806 190.177 256.85 189.633 256.893L188.934 256.937H188.807L188.139 256.97L187.417 256.99C187.18 256.99 186.946 256.99 186.715 256.99C185.901 257 185.088 256.933 184.286 256.79C188.894 252.556 190.966 248.475 191.982 245.609C195.364 236.077 193.419 222.69 192.947 219.452C192.436 215.931 191.865 213.646 193.061 210.9C194.628 207.319 197.739 206.068 203.557 203.235C208.85 200.66 213.582 198.355 217.078 195.616C218.263 194.711 219.111 193.433 219.484 191.988C219.857 190.543 219.735 189.014 219.136 187.647C218.311 185.847 216.67 184.369 213.552 184.138C208.195 183.677 203.038 181.881 198.551 178.914H225.161V178.944V178.971L225.188 179.031V179.051L225.235 179.158C225.241 179.17 225.246 179.183 225.251 179.195L225.295 179.295C225.295 179.295 225.295 179.329 225.318 179.346L225.372 179.476L225.388 179.513L225.465 179.703L225.485 179.757C225.509 179.811 225.529 179.864 225.552 179.921C225.56 179.947 225.568 179.973 225.579 179.998L225.649 180.182C225.658 180.203 225.666 180.226 225.672 180.249C225.706 180.332 225.736 180.423 225.769 180.513L225.789 180.57L225.87 180.8C225.87 180.834 225.89 180.867 225.903 180.901C225.916 180.934 225.95 181.048 225.977 181.125L226.007 181.219L226.107 181.553C226.107 181.553 226.107 181.583 226.107 181.596C226.134 181.697 226.164 181.797 226.194 181.901L226.224 182.018C226.251 182.105 226.274 182.192 226.297 182.282L226.327 182.399C226.361 182.526 226.394 182.653 226.424 182.787L226.515 183.185C226.515 183.229 226.531 183.272 226.541 183.312C226.565 183.412 226.585 183.513 226.605 183.616C226.605 183.66 226.621 183.707 226.631 183.75L226.702 184.125V184.188C226.728 184.336 226.752 184.483 226.775 184.633C226.775 184.677 226.775 184.72 226.775 184.764C226.792 184.874 226.805 184.988 226.822 185.098C226.822 185.152 226.822 185.202 226.839 185.252C226.839 185.376 226.869 185.499 226.882 185.623V185.727L226.922 186.205C226.922 186.249 226.922 186.289 226.922 186.332L226.942 186.7C226.942 186.757 226.942 186.81 226.942 186.864C226.942 186.988 226.942 187.111 226.942 187.239C226.942 187.282 226.942 187.325 226.942 187.372C226.942 187.536 226.942 187.707 226.942 187.874C226.942 187.911 226.942 187.948 226.942 187.984C226.942 188.118 226.942 188.255 226.926 188.389V188.556C226.926 188.683 226.926 188.81 226.895 188.934C226.895 188.984 226.895 189.034 226.895 189.085C226.895 189.259 226.859 189.419 226.839 189.606C226.839 189.633 226.839 189.657 226.839 189.683C226.819 189.83 226.795 189.981 226.768 190.131C226.768 190.188 226.748 190.245 226.738 190.299C226.718 190.426 226.692 190.553 226.665 190.68C226.665 190.733 226.642 190.79 226.631 190.844C226.591 191.018 226.551 191.178 226.504 191.366C226.242 192.363 225.864 193.326 225.378 194.235C225.289 194.4 225.196 194.564 225.098 194.727L224.994 194.904C224.874 195.095 224.75 195.282 224.616 195.473L224.52 195.613C224.243 195.999 223.946 196.369 223.631 196.723C223.591 196.77 223.55 196.814 223.507 196.857C223.343 197.041 223.173 197.222 222.992 197.399C221.951 198.409 220.782 199.277 219.514 199.981C219.317 200.095 219.113 200.205 218.906 200.315C217.66 200.969 216.457 201.583 215.297 202.158C214.525 202.543 213.776 202.914 213.044 203.268L211.968 203.79L209.91 204.773L207.985 205.68C204.276 207.422 201.399 208.75 199.507 209.924C199.08 210.183 198.668 210.468 198.274 210.777C198.06 210.946 197.857 211.129 197.666 211.325C197.28 211.68 197.018 212.148 196.917 212.663C196.872 213.043 196.865 213.426 196.894 213.807C196.961 214.703 197.185 215.737 197.429 217.054C197.459 217.225 197.492 217.389 197.522 217.583C197.552 217.777 197.579 217.917 197.606 218.064C197.632 218.211 197.663 218.399 197.689 218.573C198.118 221.354 198.275 224.172 198.157 226.984C198.157 227.295 198.134 227.613 198.117 227.94C198.067 228.897 197.99 229.914 197.883 231.001C197.84 231.435 197.793 231.87 197.749 232.308V232.429C197.659 233.308 197.562 234.195 197.465 235.081V235.191L197.315 236.529C197.255 237.084 197.191 237.639 197.128 238.201C197.064 238.74 197.004 239.271 196.941 239.803V239.883C196.857 240.599 196.77 241.308 196.687 242.007C196.647 242.342 196.603 242.676 196.563 243.01V243.104C196.523 243.415 196.486 243.726 196.446 244.031V244.151C196.366 244.795 196.287 245.425 196.209 246.041V246.154C196.129 246.783 196.052 247.395 195.975 247.984C195.661 250.422 195.384 252.499 195.186 253.964C195.186 254.054 195.16 254.144 195.15 254.231C195.14 254.318 195.126 254.402 195.113 254.485C195.003 255.291 194.926 255.856 194.889 256.117C194.886 256.265 194.876 256.321 194.876 256.321Z" fill="#1A87C4"/>
<path d="M184.249 256.806C185.903 255.237 187.39 253.501 188.687 251.626C189.974 249.757 190.999 247.722 191.735 245.576C192.437 243.421 192.921 241.202 193.178 238.95C193.446 236.696 193.569 234.427 193.546 232.158C193.485 227.612 193.081 223.078 192.339 218.593C192.162 217.466 191.969 216.332 191.895 215.151C191.857 214.555 191.863 213.957 191.915 213.362C191.979 212.76 192.102 212.167 192.283 211.589C192.646 210.434 193.238 209.364 194.024 208.442C194.811 207.547 195.734 206.78 196.757 206.168C197.76 205.546 198.779 205.021 199.808 204.496C200.837 203.971 201.867 203.492 202.892 203.001C204.948 201.998 206.996 200.994 209.021 199.991C211.048 198.978 213.018 197.855 214.922 196.626C215.393 196.316 215.854 195.994 216.306 195.66C216.753 195.347 217.172 194.995 217.556 194.606C217.923 194.215 218.245 193.783 218.515 193.319C218.773 192.846 218.978 192.345 219.126 191.827C219.409 190.782 219.409 189.681 219.126 188.636C218.847 187.585 218.266 186.639 217.455 185.914C216.621 185.205 215.613 184.733 214.535 184.546C213.465 184.352 212.276 184.319 211.153 184.095C208.891 183.694 206.679 183.049 204.557 182.172C202.433 181.318 200.415 180.223 198.542 178.907C199.499 179.529 200.496 180.088 201.526 180.58C202.547 181.079 203.593 181.525 204.66 181.917C206.784 182.714 208.99 183.275 211.237 183.59C212.363 183.787 213.465 183.79 214.645 183.974C215.832 184.158 216.948 184.657 217.876 185.419C219.738 186.998 220.456 189.667 219.861 192.004C219.568 193.185 218.982 194.272 218.157 195.165C217.75 195.596 217.302 195.986 216.821 196.332C216.359 196.666 215.888 197.001 215.41 197.335C213.491 198.6 211.504 199.76 209.459 200.81C207.427 201.87 205.369 202.867 203.32 203.867C201.272 204.867 199.183 205.817 197.305 206.991C196.364 207.547 195.514 208.245 194.786 209.061C194.085 209.881 193.556 210.833 193.228 211.86C192.527 213.914 192.964 216.168 193.288 218.422C194.004 222.957 194.351 227.543 194.328 232.134C194.304 234.434 194.134 236.73 193.816 239.007C193.511 241.286 192.972 243.527 192.209 245.696C190.565 250.071 187.695 253.826 184.249 256.806Z" fill="white"/>
<path d="M186.749 155.727L182.358 167.607C182.215 167.997 181.97 168.341 181.647 168.602C181.325 168.864 180.937 169.033 180.527 169.092L164.046 171.473C163.426 171.564 162.795 171.519 162.195 171.343C161.594 171.167 161.039 170.863 160.567 170.453C158.742 168.871 155.812 166.413 155.197 166.413C154.288 166.413 152.677 166.978 156.406 170.225C156.406 170.225 155.845 170.7 154.067 170.7C152.29 170.7 145.426 170.5 145.275 171.055C145.125 171.61 143.411 172.77 152.737 172.971C152.737 172.971 153.138 173.831 152.333 173.831C151.528 173.831 143.865 173.78 144.62 174.787C145.376 175.794 146.485 175.597 152.584 175.697C152.584 175.697 153.038 176.366 152.737 176.453C152.437 176.54 145.175 176.757 145.175 177.362C145.175 177.968 143.865 178.724 154.248 178.219C154.248 178.219 154.398 178.573 153.342 178.887C152.286 179.202 147.645 180.349 148.854 180.894C150.064 181.439 150.214 181.198 155.608 179.734L160.299 178.978C161.102 178.847 161.92 178.838 162.726 178.951C167.644 179.643 186.064 181.219 190.642 176.459C194.926 172.005 197.235 156.058 197.235 156.058L186.749 155.727Z" fill="#EA9D7D"/>
<path d="M145.165 177.369C145.165 176.764 152.423 176.56 152.727 176.459C153.031 176.359 152.573 175.704 152.573 175.704C147.922 175.627 146.174 175.724 145.269 175.329C147.484 174.64 151.644 175.453 158.862 176.209C171.965 177.586 175.798 176.75 177.308 176.369C181.462 175.322 185.422 174.202 187.895 170.75C190.902 166.55 189.639 161.654 189.532 155.821L197.235 156.078C197.235 156.078 194.926 172.008 190.642 176.479C186.07 181.232 167.681 179.667 162.739 178.974C161.929 178.858 161.107 178.866 160.299 178.998L155.598 179.754C150.204 181.219 150.054 181.469 148.844 180.914C147.634 180.359 152.273 179.202 153.332 178.907C154.391 178.613 154.238 178.239 154.238 178.239C143.855 178.73 145.165 177.974 145.165 177.369Z" fill="#D18165"/>
<path d="M156.406 170.232C156.406 170.232 156.634 175.827 161.773 175.449" stroke="#2F170B" stroke-width="2" stroke-miterlimit="10"/>
<path d="M164.503 171.413V178.834" stroke="#2F170B" stroke-width="6" stroke-linecap="round" stroke-linejoin="round"/>
<path d="M180.186 167.707C180.563 167.584 180.906 167.372 181.185 167.09C181.465 166.808 181.673 166.464 181.793 166.085L188.951 143.928C189.729 141.421 191.242 139.207 193.295 137.574C193.817 137.159 194.38 136.801 194.976 136.503C195.028 136.479 195.085 136.468 195.143 136.471C195.2 136.475 195.255 136.494 195.304 136.526C195.352 136.557 195.391 136.601 195.417 136.652C195.443 136.703 195.456 136.76 195.454 136.818L194.819 156.483L194.291 170.617C194.196 173.151 193.123 175.551 191.298 177.31C189.473 179.07 187.038 180.054 184.503 180.055H165.656L166.137 170.583C165.763 170.583 176.373 168.944 180.186 167.707Z" fill="#25BEEF"/>
<path d="M165.837 176.787C180.446 178.379 185.656 175.369 187.664 172.229C189.95 168.653 189.863 162.135 189.77 155.011C189.77 155.011 189.693 148.971 191.918 143.941C192.316 143.042 193.415 140.597 194.645 140.65C194.907 140.676 195.152 140.794 195.334 140.985L194.832 156.48L194.291 170.617C194.196 173.151 193.123 175.55 191.298 177.31C189.473 179.07 187.038 180.054 184.503 180.055H165.656L165.837 176.787Z" fill="#1A87C4"/>
<path d="M195.363 179.282H225.027C225.16 179.282 225.291 179.254 225.411 179.197C225.53 179.141 225.636 179.059 225.721 178.957C225.806 178.855 225.867 178.736 225.9 178.608C225.933 178.479 225.938 178.345 225.913 178.215L217.936 135.667L211.637 134.273C209.388 139.045 202.464 139.262 200.252 134.473L195.47 136.293C194.647 136.494 193.919 136.977 193.413 137.657C192.906 138.338 192.653 139.174 192.697 140.022L192.747 141.53L193.94 177.904C193.943 178.001 193.97 178.489 195.363 179.282Z" fill="#25BEEF"/>
<path d="M243.594 201.412C243.443 200.81 243.361 200.193 243.35 199.573C243.273 194.366 242.779 174.489 239.784 165.459C238.829 162.577 230.07 147.891 230.07 147.891L217.559 150.537L228.587 168.861C229.074 169.673 229.433 170.557 229.649 171.479L236.369 200.125C236.462 200.518 236.466 200.927 236.38 201.322C236.293 201.717 236.12 202.087 235.871 202.406C234.458 204.222 231.658 207.911 231.704 208.586C231.764 209.492 232.433 211.068 235.424 207.125C235.424 207.125 235.935 207.653 236.055 209.436C236.175 211.218 236.429 218.081 236.994 218.195C237.559 218.308 238.829 219.94 238.408 210.616C238.408 210.616 239.236 210.155 239.29 210.951C239.343 211.747 239.805 219.412 240.76 218.589C241.716 217.767 241.429 216.673 241.135 210.563C241.135 210.563 241.756 210.064 241.876 210.362C241.997 210.66 242.685 217.89 243.287 217.85C243.888 217.81 244.734 219.068 243.537 208.733C243.537 208.733 243.871 208.559 244.252 209.596C244.633 210.633 246.09 215.185 246.561 213.944C247.033 212.703 246.772 212.563 244.954 207.275L243.617 201.399L243.594 201.412Z" fill="#EA9D7D"/>
<path d="M217.559 150.53L220.513 149.908C222.715 152.707 225.459 154.741 229.028 159.971C231.808 164.048 233.609 168.195 234.411 169.948C236.603 174.754 236.155 177.202 237.619 189.051C238.495 196.168 238.936 199.727 239.397 201.586C239.397 201.586 242.698 214.917 241.068 218.218C240.994 218.372 240.878 218.502 240.734 218.593C239.778 219.415 239.317 211.76 239.263 210.954C239.21 210.148 238.381 210.62 238.381 210.62C238.802 219.944 237.532 218.312 236.967 218.198C236.403 218.084 236.149 211.255 236.028 209.452C235.908 207.67 235.397 207.141 235.397 207.141C232.389 211.084 231.721 209.509 231.678 208.603C231.631 207.934 234.431 204.255 235.845 202.422C236.093 202.104 236.267 201.733 236.353 201.339C236.439 200.944 236.435 200.535 236.343 200.141L229.622 171.496C229.406 170.574 229.047 169.69 228.56 168.878L217.559 150.53Z" fill="#D18165"/>
<path d="M243.31 199.319C243.519 199.319 243.72 199.24 243.873 199.097C244.026 198.954 244.118 198.758 244.132 198.55C244.389 194.536 243.798 175.968 241.529 166.69C239.858 159.908 227.908 142.346 227.908 142.346C227.908 142.346 222.408 136.584 217.936 135.657L215.39 148.948L228.252 170.222C228.379 170.413 233.505 193.663 234.735 198.453C234.797 198.698 234.939 198.916 235.139 199.071C235.339 199.226 235.585 199.31 235.838 199.309L243.31 199.319Z" fill="#25BEEF"/>
<path d="M224.396 162.657L215.45 149.052L215.47 148.921C215.509 148.673 215.611 148.44 215.766 148.243C215.922 148.046 216.126 147.893 216.358 147.799C216.59 147.705 216.843 147.672 217.091 147.705C217.34 147.737 217.576 147.834 217.776 147.985C219.484 149.286 221.666 151.523 223.664 153.573C225.749 155.714 227.988 158.011 229.027 159.971L225.017 162.777C224.919 162.843 224.798 162.867 224.682 162.845C224.566 162.822 224.463 162.755 224.396 162.657Z" fill="#1A87C4"/>
<path d="M193.94 177.904C195.901 177.209 201.008 177.185 208.747 174.744C216.005 172.456 217.469 170.597 218.13 169.266C219.684 166.138 218.668 162.169 218.251 160.537C217.499 157.607 217.288 156.486 215.784 152.771C215.28 151.523 215.116 148.503 215.784 148.256C216.563 147.968 219.627 151.483 221.876 156.155L225.886 178.188C225.915 178.32 225.914 178.456 225.884 178.588C225.853 178.719 225.793 178.841 225.709 178.946C225.625 179.051 225.518 179.136 225.396 179.194C225.275 179.252 225.142 179.282 225.007 179.282H195.363C194.994 179.282 194.639 179.139 194.373 178.882C194.107 178.624 193.952 178.274 193.94 177.904Z" fill="#1A87C4"/>
<path d="M235.838 199.319C235.585 199.319 235.338 199.235 235.138 199.08C234.938 198.925 234.795 198.708 234.732 198.463C233.505 193.673 228.383 170.423 228.252 170.232L219.898 156.396L219.026 152.175L229.051 159.971C229.051 159.971 233.088 164.941 234.17 171.413C235.253 177.884 238.979 199.295 238.982 199.319H235.838Z" fill="#1A87C4"/>
<path d="M153.115 270.405C148.437 271.074 143.885 269.509 142.211 268.137C140.537 266.766 137.827 267.305 137.827 267.305L137.907 270.565L133.008 270.425C133.008 270.425 132.764 267.191 132.547 264.278C132.437 262.823 132.911 262.01 133.098 260.599C133.285 259.188 134.295 256.92 134.295 256.92C136.931 257.007 143.738 257.408 144.988 255.893C145.465 256.87 146.107 257.757 146.886 258.515C147.14 258.776 147.411 259.027 147.685 259.275C147.959 259.522 148.153 259.666 148.393 259.856C148.701 260.101 149.018 260.341 149.349 260.576C152.69 262.94 156.854 264.749 159.153 266.428C162.759 269.097 157.797 269.729 153.115 270.405Z" fill="#454851"/>
<path d="M106.479 267.94C102.154 266.027 99.1269 262.274 98.4386 260.228C97.7502 258.181 95.2573 256.786 95.2573 256.786L93.8906 258.974L89.8137 256.251C89.8137 256.251 90.9332 254.408 92.2899 251.823C92.9582 250.532 93.8037 250.094 94.7026 249.007C95.6015 247.92 97.6666 246.536 97.6666 246.536C99.8588 248.01 105.413 251.96 107.267 251.335C107.155 252.417 107.229 253.512 107.488 254.569C107.565 254.923 107.658 255.281 107.762 255.636C107.855 255.927 107.952 256.214 108.053 256.505C108.186 256.873 108.327 257.248 108.48 257.622C110.051 261.392 112.631 265.144 113.69 267.789C115.344 271.953 110.803 269.863 106.479 267.94Z" fill="#454851"/>
<path d="M141.974 159.262C141.974 159.262 147.19 205.593 147.354 209.673C147.518 213.753 145.152 256.204 145.152 256.204C145.152 256.204 138.802 258.763 134.251 257.02C134.251 257.02 130.662 224.476 131.203 216.218L130.007 200.546C130.007 200.546 129.028 213.589 128.052 215.128C127.077 216.666 108.026 252.449 108.026 252.449C108.026 252.449 97.1653 247.539 97.1653 246.138C97.1653 246.138 103.474 220.014 111.534 212.723C111.572 202.616 111.608 192.512 111.641 182.409C109.84 177.844 109.169 172.909 109.687 168.028C110.027 164.925 110.853 161.895 112.133 159.048C112.133 159.048 135.447 162.526 141.974 159.262Z" fill="#25BEEF"/>
<path d="M130.388 195.469C131.26 185.436 133.062 175.817 133.653 175.877C134.101 175.924 133.636 180.918 133.489 192.369C133.369 201.71 133.553 207.981 133.823 216.857C134.335 234.185 135.03 237.154 135.772 239.552C137.718 245.693 140.915 251.363 145.162 256.204C143.023 257.168 139.558 258.278 135.681 257.422C135.201 257.315 134.727 257.181 134.261 257.02C134.261 257.02 130.672 224.476 131.214 216.218L130.047 201.051C130.081 199.513 130.184 197.837 130.388 195.469Z" fill="#1A87C4"/>
<path d="M105.259 235.877C106.595 228.703 110.649 227.288 113.987 218.89C115.992 213.837 116.229 208.034 116.694 196.426C117.406 178.63 115.531 177.265 117.874 172.941C124.046 161.543 142.228 161.165 141.974 159.262C134.926 161.684 115.367 159.48 112.48 159.108L112.243 159.078H112.169H112.133C110.853 161.925 110.027 164.955 109.687 168.058C109.169 172.94 109.84 177.874 111.641 182.439C111.608 192.544 111.572 202.649 111.534 212.753C103.488 220.044 97.1653 246.168 97.1653 246.168C97.4159 246.502 97.6866 246.81 97.9773 247.128C100.163 248.823 106.131 251.606 107.668 252.311H107.698H107.728L107.808 252.348L107.855 252.368L107.889 252.385L107.932 252.405H107.952L108.036 252.445C106.108 248.472 104.016 242.499 105.259 235.877Z" fill="#1A87C4"/>
<path d="M111.09 161.677C111.09 161.677 128.286 166.025 142.244 161.677" stroke="white" stroke-width="3" stroke-miterlimit="10"/>
<path d="M121.536 96.1626C121.536 96.1626 122.372 106.296 126.378 110.691C130.385 115.085 126.452 95.8248 126.452 95.8248L121.536 96.1626Z" fill="black"/>
<path d="M134.398 115.61C134.191 114.871 135.066 113.065 135.604 112.025C131.975 112.584 127.658 110.019 125.409 105.484C125.274 105.558 125.129 105.611 124.978 105.641C124.978 105.641 124.624 115.075 122.582 115.192C120.193 117.246 112.386 124.189 113.977 127.41C115.314 130.112 122.518 128.717 133.262 126.64C134.307 126.479 135.282 126.014 136.066 125.303C138.321 123.149 137.703 119.283 137.402 118.41C136.978 117.269 134.702 116.681 134.398 115.61Z" fill="#EA9D7D"/>
<path d="M126.565 116.684C125.138 113.594 128.129 112.942 128.129 112.942L128.109 112.898C130.087 114.236 132.3 114.815 134.281 114.427C134.375 114.41 134.465 114.386 134.555 114.363C134.839 113.548 135.19 112.759 135.604 112.002C131.975 112.56 127.865 109.754 125.616 105.219C125.562 105.342 125.472 105.446 125.358 105.517C125.244 105.588 125.112 105.623 124.978 105.617C124.978 105.617 124.911 107.37 124.674 109.377C124.36 112.025 123.748 115.122 122.582 115.189C119.344 117.942 111.524 124.942 113.095 128.049C114.666 131.156 125.392 130.055 133.262 126.637C134.462 126.115 135.441 125.604 136.152 125.209C131.237 125.751 127.842 119.447 126.565 116.684Z" fill="#D18165"/>
<path d="M129.99 87.6744C125.847 88.4838 123.307 93.7647 123.892 99.895H123.858C122.726 100.116 122.061 101.567 122.368 103.163C122.675 104.758 123.845 105.838 124.978 105.627C125.106 105.621 125.232 105.588 125.347 105.53C125.462 105.473 125.564 105.392 125.646 105.293C127.945 109.932 132.169 112.684 135.848 111.982C140.41 111.092 142.024 105.457 140.68 98.5539C139.337 91.651 134.555 86.7948 129.99 87.6744Z" fill="#EA9D7D"/>
<path d="M123.822 101.313C123.711 101.864 123.702 102.431 123.795 102.985C123.856 103.243 123.946 103.492 124.066 103.728C124.112 103.858 124.193 103.979 124.253 104.116C124.332 104.253 124.403 104.395 124.467 104.54C124.31 104.491 124.158 104.425 124.016 104.343C123.876 104.251 123.748 104.145 123.631 104.025C123.391 103.771 123.227 103.455 123.156 103.112C123.086 102.769 123.113 102.414 123.234 102.086C123.345 101.773 123.55 101.503 123.822 101.313Z" fill="#D18165"/>
<path d="M134.425 106.811C135.644 107.175 136.836 107.622 137.994 108.149C137.994 108.149 138.268 106.373 136.858 105.828C135.447 105.283 134.425 106.811 134.425 106.811Z" fill="#BE3E5F"/>
<path d="M137.7 98.1359C137.85 98.8048 137.98 99.4736 138.164 100.119C138.248 100.422 138.367 100.714 138.518 100.989C138.582 101.099 138.699 101.256 138.789 101.397C138.879 101.537 138.98 101.698 139.07 101.858C139.281 102.204 139.388 102.604 139.377 103.009C139.358 103.254 139.247 103.483 139.066 103.651C138.906 103.794 138.711 103.896 138.502 103.945C137.794 104.079 137.065 104.027 136.383 103.795C137.045 103.764 137.7 103.652 138.335 103.46C138.454 103.411 138.562 103.339 138.652 103.246C138.718 103.171 138.752 103.075 138.749 102.975C138.719 102.695 138.627 102.424 138.482 102.183C138.405 102.042 138.321 101.905 138.234 101.761C138.147 101.617 138.057 101.494 137.964 101.303C137.807 100.967 137.703 100.608 137.656 100.24C137.557 99.5405 137.572 98.8302 137.7 98.1359Z" fill="#D18165"/>
<path d="M131.992 97.0924C132.655 97.2074 133.325 97.2778 133.997 97.3031C134.323 97.3132 134.65 97.2964 134.973 97.2529C135.307 97.2228 135.641 97.1359 135.975 97.069C135.72 97.3283 135.407 97.5252 135.063 97.6442C134.717 97.7658 134.351 97.8235 133.984 97.8148C133.62 97.8074 133.259 97.7431 132.914 97.6241C132.575 97.5092 132.262 97.3286 131.992 97.0924Z" fill="black"/>
<path d="M140.316 97.1994C140.226 97.2295 140.132 97.2529 140.039 97.2763C139.864 97.315 139.686 97.3407 139.507 97.3532C139.324 97.3683 139.14 97.3683 138.956 97.3532C138.595 97.3267 138.243 97.2289 137.92 97.0656C138.415 97.0154 138.883 96.972 139.334 96.895C139.534 96.8649 139.728 96.8248 139.922 96.778C140.009 96.778 140.092 96.7412 140.176 96.7178C140.226 96.875 140.273 97.0388 140.316 97.1994Z" fill="black"/>
<path d="M139.811 100.664C139.678 100.69 139.54 100.662 139.427 100.586C139.315 100.51 139.237 100.393 139.21 100.26L138.923 98.788C138.898 98.6542 138.927 98.5161 139.003 98.4035C139.08 98.2909 139.197 98.2128 139.33 98.186C139.396 98.1734 139.464 98.174 139.53 98.1877C139.596 98.2014 139.658 98.228 139.714 98.2659C139.769 98.3038 139.817 98.3523 139.854 98.4086C139.891 98.4649 139.916 98.5279 139.928 98.5941L140.216 100.062C140.241 100.196 140.213 100.334 140.138 100.447C140.062 100.559 139.945 100.638 139.811 100.664Z" fill="black"/>
<path d="M134.662 100.979C134.596 100.992 134.528 100.992 134.462 100.978C134.396 100.965 134.333 100.939 134.277 100.901C134.221 100.864 134.173 100.815 134.136 100.759C134.099 100.703 134.073 100.64 134.06 100.574L133.773 99.1024C133.755 98.9727 133.788 98.841 133.864 98.7346C133.94 98.6281 134.054 98.5549 134.183 98.5301C134.311 98.5052 134.444 98.5306 134.554 98.601C134.665 98.6713 134.744 98.7814 134.776 98.9084L135.063 100.377C135.09 100.51 135.062 100.648 134.987 100.761C134.912 100.874 134.795 100.952 134.662 100.979Z" fill="black"/>
<path d="M130.966 102.146C130.966 102.146 139.213 101.624 141.115 102.146C141.115 102.146 141.813 110.671 136.363 111.885C130.913 113.099 127.728 108.875 127.728 108.875L130.966 102.146Z" fill="#25BEEF"/>
<path d="M124.948 105.667C125.375 105.919 125.778 106.208 126.154 106.53C126.529 106.845 126.886 107.179 127.227 107.534C127.567 107.883 127.89 108.249 128.193 108.631C128.506 109.015 128.785 109.427 129.025 109.861C128.598 109.608 128.195 109.318 127.818 108.995C127.444 108.68 127.087 108.345 126.749 107.992C126.415 107.657 126.081 107.276 125.78 106.895C125.468 106.511 125.189 106.1 124.948 105.667Z" fill="#25BEEF"/>
<path d="M125.135 100.179C125.824 100.302 126.505 100.468 127.173 100.678C127.842 100.878 128.499 101.101 129.145 101.347C129.791 101.592 130.43 101.863 131.063 102.159C131.701 102.447 132.32 102.777 132.914 103.146C132.225 103.023 131.544 102.856 130.876 102.648C130.208 102.444 129.539 102.223 128.908 101.979C128.276 101.734 127.618 101.46 126.986 101.166C126.349 100.876 125.731 100.547 125.135 100.179Z" fill="#25BEEF"/>
<path d="M135.574 103.149C135.951 102.921 136.36 102.752 136.787 102.648C137.21 102.533 137.644 102.467 138.081 102.45C138.523 102.428 138.966 102.467 139.397 102.567C139.838 102.659 140.249 102.859 140.594 103.149C140.149 103.106 139.745 103.092 139.334 103.086C138.923 103.079 138.515 103.106 138.107 103.116C137.282 103.143 136.46 103.206 135.574 103.149Z" fill="white"/>
<path d="M136.363 111.885C137.279 111.686 138.119 111.23 138.786 110.571C137.419 110.196 135.3 110.055 133.676 108.206C132.835 107.26 132.291 106.088 132.112 104.835C132.018 103.896 132.14 102.947 132.467 102.062C131.561 102.106 130.966 102.146 130.966 102.146L127.741 108.865C127.741 108.865 130.909 113.092 136.363 111.885Z" fill="#1A87C4"/>
<path d="M139.641 95.0322C139.641 95.0322 136.968 91.9252 128.263 93.5406C128.263 93.5406 129.633 96.4168 128.386 97.0723C127.14 97.7278 126.842 97.9051 127.384 99.6241C127.925 101.343 128.921 103.119 127.477 102.581C126.034 102.042 123.608 97.9519 122.843 101.076C122.101 104.086 123.845 105.089 123.678 105.53C123.667 105.552 123.652 105.571 123.634 105.587C123.615 105.602 123.594 105.614 123.571 105.621C123.013 105.791 120.811 102.33 120.286 99.0622C119.578 94.6476 121.716 89.2597 125.777 87.1058C126.903 86.5335 128.128 86.1795 129.386 86.0624C136.557 85.0925 144.64 89.2597 144.383 92.0021C144.299 92.8984 143.314 93.9887 139.641 95.0322Z" fill="black"/>
<path d="M170.782 152.801L170.675 151.727C170.675 151.727 175.852 149.256 176.958 148.088C178.064 146.921 180.299 144.169 180.794 144.182C181.288 144.196 182.318 144.851 181.496 146.122C180.674 147.393 179.09 149.988 179.688 150.095C180.286 150.202 188.226 149.072 188.71 149.303C189.195 149.533 190.411 150.507 189.576 151.513C189.137 152.078 188.562 152.521 187.905 152.801C187.905 152.801 189.302 154.898 186.431 154.888C186.431 154.888 186.795 156.965 184.567 156.617C184.567 156.617 184.47 158.623 182.595 158.533C180.72 158.443 170.786 159.791 170.786 159.791" fill="#EA9D7D"/>
<path d="M183.354 158.336C182.891 158.286 182.432 158.205 181.98 158.092C181.526 157.982 181.08 157.844 180.643 157.677C180.186 157.505 179.75 157.28 179.344 157.008C179.11 156.848 178.906 156.648 178.742 156.416C178.634 156.263 178.563 156.087 178.535 155.901C178.509 155.692 178.545 155.481 178.638 155.292L178.618 155.336C178.666 155.218 178.727 155.106 178.799 155.001C178.865 154.903 178.94 154.811 179.023 154.727C179.194 154.553 179.4 154.418 179.628 154.329C179.854 154.242 180.097 154.202 180.339 154.212C180.452 154.216 180.563 154.228 180.674 154.249C180.78 154.272 180.884 154.306 180.988 154.333L180.366 154.898C180.318 154.592 180.318 154.28 180.366 153.975C180.412 153.64 180.548 153.324 180.76 153.062C180.988 152.788 181.31 152.611 181.663 152.567C181.817 152.543 181.974 152.537 182.13 152.547C182.278 152.563 182.418 152.587 182.558 152.613L182.191 153.018C182.152 152.781 182.152 152.539 182.191 152.302C182.229 152.059 182.326 151.83 182.475 151.634C182.618 151.444 182.818 151.305 183.046 151.239C183.252 151.177 183.468 151.158 183.681 151.182C183.584 151.222 183.484 151.249 183.394 151.289C183.305 151.329 183.22 151.377 183.14 151.433C182.991 151.532 182.874 151.672 182.806 151.838C182.744 151.999 182.716 152.17 182.722 152.343C182.725 152.513 182.755 152.682 182.809 152.844L182.949 153.222L182.441 153.249C182.328 153.249 182.214 153.249 182.107 153.249C182.007 153.258 181.909 153.277 181.813 153.306C181.655 153.346 181.519 153.445 181.432 153.583C181.342 153.735 181.29 153.906 181.282 154.082C181.265 154.285 181.275 154.49 181.312 154.69L181.466 155.436L180.684 155.252C180.558 155.217 180.429 155.197 180.299 155.192C180.185 155.186 180.072 155.205 179.965 155.246C179.863 155.283 179.771 155.343 179.694 155.419C179.654 155.461 179.616 155.504 179.581 155.55C179.552 155.591 179.525 155.633 179.501 155.677L179.484 155.7V155.72C179.484 155.751 179.461 155.754 179.484 155.774C179.487 155.818 179.5 155.861 179.524 155.898C179.615 156.045 179.727 156.177 179.858 156.289C180.191 156.561 180.546 156.804 180.921 157.015C181.305 157.246 181.706 157.453 182.107 157.684L183.354 158.336Z" fill="#D18165"/>
<path d="M171.126 151.767L174.578 151.811L173.292 159.245C168.393 160.072 150.024 162.148 145.319 157.52C140.914 153.172 138.171 137.326 138.171 137.326L148.64 136.684L153.355 148.446C153.509 148.832 153.765 149.17 154.095 149.422C154.425 149.675 154.817 149.833 155.23 149.881L171.768 151.811" fill="#EA9D7D"/>
<path d="M180.38 150.48C180.38 150.48 179.083 155.928 174.111 154.57" stroke="#2F170B" stroke-width="2" stroke-miterlimit="10"/>
<path d="M85.5567 189.468L114.358 188.677C115.005 188.663 115.631 188.906 116.1 189.353C116.569 189.799 116.842 190.414 116.86 191.061L117.286 206.607L83.601 207.531L83.1753 191.985C83.1575 191.335 83.3984 190.705 83.845 190.233C84.2916 189.761 84.9073 189.485 85.5567 189.468Z" fill="#FF5061"/>
<path d="M83.605 207.533L83.5081 203.984L87.2674 207.432L83.605 207.533Z" fill="#FC7E85"/>
<path d="M117.302 206.61L117.205 203.058L113.64 206.71L117.302 206.61Z" fill="#FC7E85"/>
<path d="M83.1772 191.984L83.2039 192.877L116.901 191.951L116.878 191.058C116.859 190.411 116.585 189.798 116.116 189.352C115.647 188.906 115.022 188.663 114.375 188.677L85.5732 189.466C85.2503 189.473 84.932 189.544 84.6366 189.674C84.3412 189.805 84.0745 189.992 83.8518 190.226C83.6291 190.46 83.4549 190.736 83.3391 191.038C83.2233 191.34 83.1683 191.661 83.1772 191.984Z" fill="#FC7E85"/>
<path d="M171.31 151.764L171.514 159.179" stroke="#2F170B" stroke-width="6" stroke-linecap="round" stroke-linejoin="round"/>
<path d="M149.853 135.674L146.117 124.972C145.273 122.492 143.704 120.324 141.613 118.748C141.077 118.345 140.5 117.999 139.892 117.718C139.839 117.693 139.78 117.683 139.722 117.689C139.664 117.695 139.608 117.715 139.56 117.749C139.513 117.783 139.475 117.829 139.45 117.882C139.426 117.935 139.416 117.994 139.421 118.052L140.597 137.694L148.617 137.473C148.831 137.47 149.041 137.416 149.229 137.315C149.418 137.214 149.579 137.07 149.7 136.894C149.821 136.717 149.898 136.515 149.925 136.302C149.952 136.09 149.927 135.875 149.853 135.674Z" fill="#25BEEF"/>
<path d="M139.671 122.196L140.597 137.674L145.863 137.53C145.884 133.764 145.489 129.614 143.167 125.052C141.583 121.945 140.714 121.811 140.35 121.838C140.088 121.871 139.847 121.998 139.671 122.196Z" fill="#1A87C4"/>
<path d="M93.0684 183.921C93.2044 183.314 93.2694 182.693 93.2622 182.071C93.1954 176.867 93.1486 156.988 95.8955 147.871C96.7676 144.961 105.122 130.038 105.122 130.038L117.717 132.343L107.204 150.961C106.736 151.787 106.397 152.681 106.201 153.61L100.27 182.426C100.188 182.822 100.195 183.231 100.292 183.623C100.388 184.015 100.571 184.381 100.828 184.693C102.291 186.469 105.192 190.081 105.172 190.76C105.135 191.667 104.504 193.258 101.413 189.399C101.413 189.399 100.915 189.941 100.844 191.74C100.774 193.539 100.707 200.389 100.146 200.519C99.5847 200.65 98.3616 202.319 98.5254 192.984C98.5254 192.984 97.6866 192.546 97.6532 193.352C97.6198 194.158 97.3725 201.824 96.3934 201.028C95.4143 200.232 95.6616 199.118 95.7885 193.024C95.7885 193.024 95.1503 192.546 95.0367 192.844C94.923 193.141 94.4385 200.392 93.8337 200.369C93.2288 200.345 92.4235 201.626 93.3358 191.262C93.3358 191.262 93.0016 191.098 92.644 192.145C92.2865 193.192 90.9732 197.784 90.4519 196.549C89.9306 195.315 90.2046 195.178 91.8754 189.84L93.0684 183.931V183.921Z" fill="#EA9D7D"/>
<path d="M117.717 132.343L114.749 131.801C112.624 134.661 109.937 136.768 106.512 142.095C103.839 146.246 102.168 150.44 101.406 152.216C99.3442 157.078 99.8588 159.513 98.7327 171.399C98.0643 178.536 97.7068 182.101 97.2991 183.978C97.2991 183.978 94.3618 197.392 96.0627 200.65C96.1387 200.8 96.2543 200.926 96.3969 201.014C97.376 201.81 97.6266 194.148 97.6567 193.339C97.6867 192.529 98.5288 192.971 98.5288 192.971C98.3651 202.305 99.5915 200.636 100.15 200.506C100.708 200.376 100.778 193.543 100.848 191.74C100.918 189.954 101.416 189.399 101.416 189.399C104.514 193.259 105.139 191.667 105.175 190.76C105.202 190.091 102.302 186.469 100.831 184.693C100.575 184.381 100.392 184.015 100.295 183.623C100.199 183.231 100.191 182.822 100.273 182.426L106.205 153.61C106.401 152.681 106.739 151.788 107.207 150.961L117.717 132.343Z" fill="#D18165"/>
<path d="M140.677 160.473L114.786 161.185C114.38 161.197 113.977 161.12 113.604 160.961C113.231 160.802 112.896 160.564 112.623 160.264C112.351 159.963 112.146 159.607 112.023 159.22C111.9 158.833 111.862 158.424 111.912 158.021L116.925 117.497L122.438 115.233C124.814 119.942 132.49 120.667 134.569 115.818L139.397 117.49C140.226 117.668 140.967 118.131 141.492 118.798C142.017 119.464 142.292 120.294 142.271 121.142V122.651C142.204 134.78 142.139 146.91 142.074 159.042C142.061 159.155 142.047 159.644 140.677 160.473Z" fill="#25BEEF"/>
<path d="M100.571 138.175C100.422 138.076 100.294 137.948 100.195 137.799C100.096 137.651 100.027 137.483 99.9925 137.308C99.958 137.132 99.9586 136.952 99.9941 136.776C100.03 136.601 100.1 136.434 100.2 136.286L109.262 122.935C109.262 122.935 112.474 118.54 116.918 117.5L119.825 130.717L111.197 144.657C111.165 144.708 111.123 144.752 111.074 144.787C111.025 144.822 110.969 144.846 110.91 144.859C110.851 144.872 110.79 144.873 110.731 144.861C110.672 144.85 110.616 144.827 110.565 144.794L100.571 138.175Z" fill="#25BEEF"/>
<path d="M111.197 144.654L119.768 130.818L119.745 130.687C119.701 130.439 119.592 130.207 119.431 130.013C119.269 129.82 119.06 129.671 118.824 129.583C118.588 129.495 118.333 129.47 118.084 129.511C117.836 129.551 117.602 129.656 117.406 129.814C115.735 131.152 113.613 133.457 111.672 135.564C109.647 137.761 107.471 140.119 106.485 142.105L110.555 144.801C110.607 144.835 110.664 144.859 110.725 144.87C110.786 144.881 110.848 144.88 110.908 144.866C110.968 144.853 111.025 144.827 111.075 144.79C111.124 144.753 111.166 144.707 111.197 144.654Z" fill="#1A87C4"/>
<path d="M142.061 159.055C140.079 158.416 134.976 158.533 127.174 156.306C119.855 154.215 118.342 152.399 117.643 151.088C116.006 148.001 116.911 144.008 117.286 142.366C117.954 139.413 118.138 138.289 119.538 134.533C120.009 133.273 120.093 130.249 119.414 130.022C118.629 129.754 116.52 133.176 114.402 137.908L111.919 158.021C111.869 158.424 111.907 158.833 112.03 159.22C112.153 159.607 112.357 159.963 112.63 160.264C112.903 160.564 113.238 160.802 113.611 160.961C113.984 161.12 114.387 161.197 114.793 161.185L140.684 160.473C141.054 160.463 141.405 160.31 141.663 160.045C141.922 159.78 142.067 159.425 142.067 159.055H142.061Z" fill="#1A87C4"/>
<path d="M105.64 188.914L101.613 189.024C101.428 189.421 101.347 189.858 101.376 190.295C101.399 191.108 102.502 191.891 102.502 191.891C102.502 191.891 104.708 192.252 105.212 191.998C105.717 191.743 105.64 188.914 105.64 188.914Z" fill="#FC7E85"/>
<path d="M120.411 129.735L127.025 129.553C127.394 129.543 127.685 129.236 127.675 128.866L127.628 127.168C127.618 126.799 127.311 126.508 126.942 126.518L120.328 126.699C119.959 126.709 119.668 127.017 119.678 127.386L119.724 129.084C119.734 129.454 120.042 129.745 120.411 129.735Z" fill="#E3EAF3"/>
<path d="M191.407 148.306C191.407 148.306 126.041 167.108 129.306 124.018" stroke="#2F170B" stroke-width="5" stroke-linecap="round" stroke-linejoin="round"/>
<path d="M122.893 103.243C120.136 102.908 119.885 108.029 119.885 108.029C120.935 114.209 126.405 124.51 129.312 124.018L130.983 123.734C133.89 123.239 140.543 113.621 139.494 107.44" stroke="#2F170B" stroke-width="3" stroke-linecap="round" stroke-linejoin="round"/>
<path d="M123.55 104.419C123.962 104.349 124.205 103.761 124.094 103.105C123.983 102.45 123.559 101.975 123.148 102.045C122.737 102.115 122.493 102.703 122.605 103.358C122.716 104.014 123.139 104.489 123.55 104.419Z" fill="#2F170B"/>
<path d="M191.397 150.945C193.051 150.945 194.391 149.603 194.391 147.948C194.391 146.293 193.051 144.951 191.397 144.951C189.743 144.951 188.403 146.293 188.403 147.948C188.403 149.603 189.743 150.945 191.397 150.945Z" fill="#2F170B"/>
<path d="M191.397 149.854C192.449 149.854 193.302 149.001 193.302 147.948C193.302 146.895 192.449 146.042 191.397 146.042C190.345 146.042 189.492 146.895 189.492 147.948C189.492 149.001 190.345 149.854 191.397 149.854Z" fill="#1A87C4"/>
<path d="M191.397 148.831C191.884 148.831 192.279 148.436 192.279 147.948C192.279 147.46 191.884 147.065 191.397 147.065C190.91 147.065 190.515 147.46 190.515 147.948C190.515 148.436 190.91 148.831 191.397 148.831Z" fill="#ABBCCA"/>
</svg>
