<svg width="80" height="80" viewBox="0 0 80 80" fill="none" xmlns="http://www.w3.org/2000/svg">
<circle opacity="0.1" cx="40" cy="40" r="40" fill="#27AE60"/>
<path d="M56.483 25.5687C54.4656 23.5292 51.7404 22.4017 48.8092 22.3934C45.7923 22.3834 42.7688 23.5265 40.3464 25.5586C37.5913 23.1324 35.0991 21.9495 32.7523 21.9495C29.4748 21.9495 26.434 23.2403 24.2106 25.5637C22.5395 27.2348 21.3945 29.4288 20.8982 31.9091C20.7496 32.6545 21.2326 33.3792 21.978 33.5284C22.7226 33.6761 23.4482 33.194 23.5973 32.4485C23.9863 30.5031 24.8712 28.7953 26.1776 27.4884C27.8978 25.6912 30.2331 24.7017 32.7524 24.7017C34.5776 24.7017 36.7887 25.9316 39.3006 28.3329C39.5823 28.6159 39.9524 28.7724 40.3428 28.7728C40.3433 28.7728 40.3442 28.7728 40.3446 28.7728C40.7341 28.7728 41.1042 28.6174 41.3863 28.3352C43.4143 26.3073 46.1069 25.1458 48.7767 25.1458C48.7855 25.1458 48.7937 25.1458 48.8019 25.1458C51.0267 25.1517 53.0066 25.9678 54.5111 27.4884C56.2762 29.332 57.2483 31.7467 57.2483 34.2889C57.2483 36.833 56.2542 39.3077 54.5487 41.0517L40.3669 54.7609L29.1216 43.8957C28.5752 43.3677 27.7041 43.3838 27.1757 43.9288C26.6477 44.4756 26.6629 45.3467 27.2092 45.8746L39.411 57.6636C39.6775 57.9214 40.0225 58.0503 40.3669 58.0503C40.7114 58.0503 41.0564 57.9214 41.3234 57.6641L56.4885 43.0035C58.7202 40.7224 60 37.5462 60 34.2888C60 31.0342 58.7564 27.943 56.483 25.5687Z" fill="#27AE60"/>
<path d="M57.523 37.4543H46.422C46.0431 37.4543 45.6816 37.6098 45.422 37.885L41.2491 42.2974L36.4427 31.3947C36.2362 30.9263 35.7867 30.6112 35.2762 30.5768C34.7684 30.5442 34.278 30.7942 34.0105 31.2305L30.1931 37.4543H21.3762C20.616 37.4543 20 38.0703 20 38.8305C20 39.5906 20.616 40.2067 21.3762 40.2067H30.9629C31.4413 40.2067 31.8859 39.9581 32.1359 39.5498L34.9836 34.9076L39.5666 45.303C39.7524 45.725 40.1373 46.0255 40.5914 46.1039C40.6694 46.1172 40.7478 46.1241 40.8258 46.1241C41.201 46.1241 41.5638 45.9709 41.8258 45.6938L47.0148 40.2066H57.523C58.2831 40.2066 58.8992 39.5905 58.8992 38.8304C58.8991 38.0703 58.283 37.4543 57.523 37.4543Z" fill="#27AE60"/>
</svg>
