<svg width="24" height="24" viewBox="0 0 24 24" fill="none" xmlns="http://www.w3.org/2000/svg">
<g clip-path="url(#clip0_42_409)">
<path d="M12 0.375C5.5875 0.375 0.375 5.5875 0.375 12C0.375 18.4125 5.5875 23.625 12 23.625C18.4125 23.625 23.625 18.4125 23.625 12C23.625 5.5875 18.4125 0.375 12 0.375ZM10.875 17.7525V9.45C10.875 8.8275 11.3775 8.325 12 8.325C12.6225 8.325 13.125 8.8275 13.125 9.45V17.7525C13.125 18.375 12.6225 18.8775 12 18.8775C11.3775 18.8775 10.875 18.375 10.875 17.7525ZM12 7.3725C11.3775 7.3725 10.875 6.87 10.875 6.2475C10.875 5.625 11.3775 5.1225 12 5.1225C12.6225 5.1225 13.125 5.625 13.125 6.2475C13.125 6.8625 12.6225 7.3725 12 7.3725Z" fill="white"/>
</g>
<defs>
<clipPath id="clip0_42_409">
<rect width="24" height="24" fill="white"/>
</clipPath>
</defs>
</svg>
