<svg width="80" height="80" viewBox="0 0 80 80" fill="none" xmlns="http://www.w3.org/2000/svg">
<circle opacity="0.1" cx="40" cy="40" r="40" fill="#2F80ED"/>
<g clip-path="url(#clip0_42_299)">
<path d="M53.9711 33.2401L46.7594 26.0284C46.268 25.5374 45.473 25.537 44.9816 26.0276L26.4072 44.56L28.1842 46.3412L45.8692 28.6959L51.304 34.1311L33.6592 51.8158L35.4399 53.5928L53.9723 35.0179C54.4625 34.5265 54.4621 33.7307 53.9711 33.2401Z" fill="#2F80ED"/>
<path d="M56.1098 25.6516L54.3488 23.8906C53.9388 23.4805 53.3023 23.4038 52.8067 23.7048L46.7271 27.3946L48.0323 29.5451L53.2679 26.3673L53.6327 26.7324L50.4553 31.9681L52.6059 33.2733L56.2956 27.1936C56.5966 26.6981 56.5198 26.0612 56.1098 25.6516Z" fill="#2F80ED"/>
<path d="M37.7868 54.1632L25.8371 42.2135C25.3461 41.7221 24.5494 41.7221 24.0585 42.2135C23.5671 42.7045 23.5671 43.5012 24.0585 43.9921L36.0082 55.9418C36.2535 56.1875 36.5754 56.3103 36.8975 56.3103C37.219 56.3103 37.5415 56.1874 37.7868 55.9418C38.2782 55.4508 38.2782 54.6542 37.7868 54.1632Z" fill="#2F80ED"/>
<path d="M37.4729 43.1787L25.7339 54.9609L27.5157 56.7362L39.2547 44.954L37.4729 43.1787Z" fill="#2F80ED"/>
<path d="M35.0012 40.707L23.2622 52.4893L25.0441 54.2646L36.783 42.4823L35.0012 40.707Z" fill="#2F80ED"/>
<path d="M30.4492 57.853L22.1473 49.5507C21.6559 49.0597 20.8593 49.0589 20.3683 49.5507C19.8772 50.0417 19.8772 50.8379 20.3683 51.3293L28.6701 59.6316C28.9158 59.8773 29.2379 60.0001 29.5598 60.0001C29.8814 60.0001 30.2039 59.8772 30.4491 59.6316C30.9402 59.1407 30.9402 58.3444 30.4492 57.853Z" fill="#2F80ED"/>
<path d="M59.6313 20.3688C59.1399 19.8774 58.3441 19.8774 57.8527 20.3688L53.4501 24.7713C52.9587 25.2623 52.9587 26.0589 53.4501 26.5499C53.6958 26.7956 54.0174 26.9184 54.3394 26.9184C54.6614 26.9184 54.9834 26.7955 55.2287 26.5499L59.6312 22.1474C60.1227 21.6565 60.1227 20.8598 59.6313 20.3688Z" fill="#2F80ED"/>
<path d="M34.5997 38.3132L32.8208 40.092L39.9065 47.1778L41.6854 45.3989L34.5997 38.3132Z" fill="#2F80ED"/>
</g>
<defs>
<clipPath id="clip0_42_299">
<rect width="40" height="40" fill="white" transform="translate(20 20)"/>
</clipPath>
</defs>
</svg>
