<svg width="80" height="80" viewBox="0 0 80 80" fill="none" xmlns="http://www.w3.org/2000/svg">
<circle opacity="0.1" cx="40" cy="40" r="40" fill="#855FCE"/>
<path d="M49.2905 20H30.755C29.9967 20 29.3821 20.6146 29.3821 21.373V28.1006C29.3821 28.859 29.9967 29.4736 30.755 29.4736H49.2905C50.0489 29.4736 50.6635 28.859 50.6635 28.1006V21.373C50.6635 20.6146 50.0489 20 49.2905 20ZM47.9175 26.7277H32.128V22.746H47.9175V26.7277H47.9175Z" fill="#855FCE"/>
<path d="M47.3227 28.1467H44.5767V34.4625H47.3227V28.1467Z" fill="#855FCE"/>
<path d="M35.4233 28.1467H32.6772V34.4625H35.4233V28.1467Z" fill="#855FCE"/>
<path d="M49.9772 33.0891H30.023C28.7612 33.0891 27.7346 34.1157 27.7346 35.3775V57.7115C27.7346 58.9733 28.7612 59.9999 30.023 59.9999H49.9772C51.239 59.9999 52.2656 58.9733 52.2656 57.7115V35.3775C52.2656 34.1157 51.239 33.0891 49.9772 33.0891ZM49.5195 57.2539H30.4806V35.8351H49.5195V57.2539Z" fill="#855FCE"/>
<path d="M39.9999 40.2744C39.2416 40.2744 38.627 40.889 38.627 41.6474V51.4414C38.627 52.1998 39.2416 52.8144 39.9999 52.8144C40.7583 52.8144 41.3729 52.1998 41.3729 51.4414V41.6474C41.3729 40.889 40.7583 40.2744 39.9999 40.2744Z" fill="#855FCE"/>
<path d="M44.897 45.1716H35.1029C34.3446 45.1716 33.73 45.7862 33.73 46.5446C33.73 47.303 34.3446 47.9176 35.1029 47.9176H44.897C45.6558 47.9176 46.27 47.303 46.27 46.5446C46.27 45.7862 45.6554 45.1716 44.897 45.1716Z" fill="#855FCE"/>
</svg>
