<svg width="24" height="25" viewBox="0 0 24 25" fill="none" xmlns="http://www.w3.org/2000/svg">
<g clip-path="url(#clip0_42_398)">
<path d="M14.85 5.35001L16.29 6.79001L13.41 9.67001L14.83 11.09L17.71 8.21001L19.15 9.65001C19.2205 9.71911 19.3099 9.7658 19.4069 9.78419C19.5038 9.80258 19.6041 9.79185 19.695 9.75335C19.7859 9.71486 19.8634 9.65031 19.9177 9.56786C19.9719 9.4854 20.0006 9.38872 20 9.29001V5.00001C20 4.72001 19.78 4.50001 19.5 4.50001H15.21C15.1113 4.49943 15.0146 4.52808 14.9322 4.58236C14.8497 4.63663 14.7852 4.7141 14.7467 4.805C14.7082 4.8959 14.6974 4.99616 14.7158 5.09315C14.7342 5.19014 14.7809 5.27951 14.85 5.35001ZM8.79 4.50001H4.5C4.22 4.50001 4 4.72001 4 5.00001V9.29001C4 9.74001 4.54 9.96001 4.85 9.64001L6.29 8.20001L11 12.9V19.5C11 20.05 11.45 20.5 12 20.5C12.55 20.5 13 20.05 13 19.5V12.5C13 12.24 12.89 11.98 12.71 11.79L7.71 6.78001L9.15 5.34001C9.46 5.04001 9.24 4.50001 8.79 4.50001Z" fill="white"/>
</g>
<defs>
<clipPath id="clip0_42_398">
<rect width="24" height="24" fill="white" transform="translate(0 0.5)"/>
</clipPath>
</defs>
</svg>
